<svg xmlns="http://www.w3.org/2000/svg" viewBox="0 0 180 48" fill="none">
  <!-- L -->
  <path d="M6 6v36h20" stroke="#008080" stroke-width="2.5" stroke-linecap="round" stroke-linejoin="round"/>
  <path d="M3 3l6 6M3 45l6-3M26 45l-3-6" stroke="#008080" stroke-width="1" opacity="0.4"/>
  
  <!-- First O -->
  <rect x="36" y="6" width="32" height="36" rx="4" stroke="#008080" stroke-width="2.5"/>
  <rect x="42" y="12" width="20" height="24" rx="2" stroke="#008080" stroke-width="1" opacity="0.4"/>
  
  <!-- Second O -->  
  <rect x="78" y="6" width="32" height="36" rx="4" stroke="#008080" stroke-width="2.5"/>
  <rect x="84" y="12" width="20" height="24" rx="2" stroke="#008080" stroke-width="1" opacity="0.4"/>

  <!-- M -->
  <path d="M120 42V6l15 20 15-20v36" stroke="#008080" stroke-width="2.5" stroke-linecap="round" stroke-linejoin="round"/>
  <path d="M117 3l6 6M153 3l-6 6M135 29l-3-3 3-3" stroke="#008080" stroke-width="1" opacity="0.4"/>
  
  <!-- Connection dots (representing links) -->
  <circle cx="52" cy="24" r="2" fill="#008080" opacity="0.3"/>
  <circle cx="94" cy="24" r="2" fill="#008080" opacity="0.3"/>
  <line x1="54" y1="24" x2="78" y2="24" stroke="#008080" stroke-width="0.8" opacity="0.2" stroke-dasharray="2 2"/>
</svg>
